<?xml version="1.0" encoding="UTF-8"?>
<svg width="65px" height="53px" viewBox="0 0 65 53" version="1.1" xmlns="http://www.w3.org/2000/svg" xmlns:xlink="http://www.w3.org/1999/xlink">
    <!-- Generator: Sketch 49.3 (51167) - http://www.bohemiancoding.com/sketch -->
    <title>Icon</title>
    <desc>Created with Sketch.</desc>
    <defs>
        <linearGradient x1="15.8029001%" y1="0%" x2="126.17649%" y2="115.738738%" id="linearGradient-1">
            <stop stop-color="#8551CD" offset="0%"></stop>
            <stop stop-color="#53A0FD" offset="47.3582009%"></stop>
            <stop stop-color="#72E5ED" offset="100%"></stop>
        </linearGradient>
    </defs>
    <g id="Design---Desktop" stroke="none" stroke-width="1" fill="none" fill-rule="evenodd">
        <g id="Landing-Screen" transform="translate(-945.000000, -1407.000000)" fill="url(#linearGradient-1)" fill-rule="nonzero">
            <g id="Up-Next" transform="translate(222.000000, 1219.000000)">
                <g id="Icon" transform="translate(723.000000, 188.000000)">
                    <path d="M60.4897959,0.331632653 L4.51020408,0.331632653 C2.05612245,0.331632653 0,2.32142857 0,4.84183673 L0,48.2857143 C0,50.7397959 1.98979592,52.7959184 4.51020408,52.7959184 L60.4897959,52.7959184 C62.9438776,52.7959184 65,50.8061224 65,48.2857143 L65,4.7755102 C65,2.32142857 62.9438776,0.331632653 60.4897959,0.331632653 Z M4.51020408,2.65306122 L60.4897959,2.65306122 C61.6836735,2.65306122 62.6785714,3.64795918 62.6785714,4.84183673 L62.6785714,12.8673469 L2.32142857,12.8673469 L2.32142857,4.7755102 C2.32142857,3.58163265 3.31632653,2.65306122 4.51020408,2.65306122 Z M60.4897959,50.4081633 L4.51020408,50.4081633 C3.31632653,50.4081633 2.32142857,49.4132653 2.32142857,48.2193878 L2.32142857,15.1887755 L62.6785714,15.1887755 L62.6785714,48.2857143 C62.6785714,49.4795918 61.6836735,50.4081633 60.4897959,50.4081633 Z M6.63265306,8.55612245 C6.43367347,8.35714286 6.30102041,8.0255102 6.30102041,7.76020408 C6.30102041,7.49489796 6.43367347,7.16326531 6.63265306,6.96428571 C7.03061224,6.5 7.82653061,6.5 8.29081633,6.96428571 C8.48979592,7.16326531 8.62244898,7.49489796 8.62244898,7.76020408 C8.62244898,8.0255102 8.48979592,8.35714286 8.29081633,8.55612245 C8.09183673,8.75510204 7.76020408,8.8877551 7.49489796,8.8877551 C7.16326531,8.8877551 6.83163265,8.75510204 6.63265306,8.55612245 Z M12.8673469,8.55612245 C12.6683673,8.35714286 12.5357143,8.0255102 12.5357143,7.76020408 C12.5357143,7.49489796 12.6683673,7.16326531 12.8673469,6.96428571 C13.2653061,6.5 14.0612245,6.5 14.5255102,6.96428571 C14.7244898,7.16326531 14.8571429,7.49489796 14.8571429,7.76020408 C14.8571429,8.0255102 14.7244898,8.35714286 14.5255102,8.55612245 C14.3265306,8.75510204 13.994898,8.8877551 13.7295918,8.8877551 C13.4642857,8.8877551 13.1326531,8.75510204 12.8673469,8.55612245 Z M19.1683673,8.55612245 C18.9693878,8.35714286 18.8367347,8.0255102 18.8367347,7.76020408 C18.8367347,7.49489796 18.9693878,7.16326531 19.1683673,6.96428571 C19.5663265,6.5 20.3622449,6.5 20.8265306,6.96428571 C21.0255102,7.16326531 21.1581633,7.49489796 21.1581633,7.76020408 C21.1581633,8.0255102 21.0255102,8.35714286 20.8265306,8.55612245 C20.627551,8.75510204 20.2959184,8.8877551 20.0306122,8.8877551 C19.6326531,8.8877551 19.3673469,8.75510204 19.1683673,8.55612245 Z M47.622449,31.7704082 C48.0867347,32.2346939 48.0867347,32.9642857 47.622449,33.4285714 L40.3265306,40.7244898 C40.127551,40.9234694 39.7959184,41.0561224 39.5306122,41.0561224 C39.2653061,41.0561224 38.9336735,40.9234694 38.7346939,40.7244898 C38.2704082,40.2602041 38.2704082,39.5306122 38.7346939,39.0663265 L44.1071429,33.6938776 L18.2397959,33.6938776 C17.5765306,33.6938776 17.0459184,33.1632653 17.0459184,32.5 C17.0459184,31.8367347 17.5765306,31.3061224 18.2397959,31.3061224 L44.0408163,31.3061224 L38.6683673,25.9336735 C38.2040816,25.4693878 38.2040816,24.7397959 38.6683673,24.2755102 C39.1326531,23.8112245 39.8622449,23.8112245 40.3265306,24.2755102 L47.622449,31.7704082 Z" id="Shape"></path>
                </g>
            </g>
        </g>
    </g>
</svg>