<?xml version="1.0" encoding="UTF-8"?>
<svg width="96px" height="54px" viewBox="0 0 96 54" version="1.1" xmlns="http://www.w3.org/2000/svg" xmlns:xlink="http://www.w3.org/1999/xlink">
    <!-- Generator: Sketch 49.3 (51167) - http://www.bohemiancoding.com/sketch -->
    <title>Icon</title>
    <desc>Created with Sketch.</desc>
    <defs>
        <linearGradient x1="0%" y1="9.33017418%" x2="100%" y2="100%" id="linearGradient-1">
            <stop stop-color="#8551CD" offset="0%"></stop>
            <stop stop-color="#53A0FD" offset="47.3582009%"></stop>
            <stop stop-color="#72E5ED" offset="100%"></stop>
        </linearGradient>
        <linearGradient x1="0%" y1="9.33017418%" x2="100%" y2="100%" id="linearGradient-2">
            <stop stop-color="#53A0FD" offset="0%"></stop>
            <stop stop-color="#72E5ED" offset="100%"></stop>
        </linearGradient>
        <linearGradient x1="0%" y1="9.33017418%" x2="100%" y2="100%" id="linearGradient-3">
            <stop stop-color="#8551CD" offset="0%"></stop>
            <stop stop-color="#53A0FD" offset="100%"></stop>
        </linearGradient>
    </defs>
    <g id="Design---Desktop" stroke="none" stroke-width="1" fill="none" fill-rule="evenodd">
        <g id="Landing-Screen" transform="translate(-667.000000, -839.000000)" fill-rule="nonzero">
            <g id="Get-Started" transform="translate(242.000000, 703.000000)">
                <g id="VR" transform="translate(364.500000, 136.000000)">
                    <g id="Icon" transform="translate(61.000000, 0.000000)">
                        <path d="M84.0012723,0 L10.9987277,0 C4.95547074,0 0,4.99774266 0,11.0925508 L0,42.785553 C0,48.8803612 4.95547074,53.8781038 10.9987277,53.8781038 L35.6047778,53.8781038 C37.4254965,53.8781038 39.1022939,52.8883903 39.9821696,51.2943906 L45.0826972,42.0541761 C45.5661578,41.2009029 46.4122137,40.7133183 47.5,40.7133183 C48.5877863,40.7133183 49.4338422,41.2009029 49.9173028,42.0541761 L55.0220214,51.3973212 C55.898708,53.0019171 57.5813572,54 59.4098285,54 L84.0012723,54 C90.0445293,54 95,49.0022573 95,42.9074492 L95,11.0925508 C95,4.99774266 90.0445293,0 84.0012723,0 Z M90.6422018,42.2036918 C90.6422018,46.1907835 87.3919104,49.4529495 83.4193319,49.4529495 L58.1392873,49.4529495 L52.6017538,39.5456306 C51.3979421,37.4916742 49.3514623,36.4042855 47.0642202,36.4042855 C44.7769781,36.4042855 42.7304983,37.6124952 41.5266866,39.6664515 L35.989153,49.5737705 L10.7091084,49.5737705 C6.73652998,49.5737705 3.48623853,46.3116045 3.48623853,42.3245127 L3.48623853,10.7902414 C3.48623853,6.80314961 6.73652998,3.54098361 10.7091084,3.54098361 L83.4193319,3.54098361 C87.3919104,3.54098361 90.6422018,6.80314961 90.6422018,10.7902414 L90.6422018,42.2036918 Z" id="Shape" fill="url(#linearGradient-1)"></path>
                        <path d="M67,12 C59.8317757,12 54,17.8317757 54,25 C54,32.1682243 59.8317757,38 67,38 C74.1682243,38 80,32.1682243 80,25 C80,17.8317757 74.1682243,12 67,12 Z M67,34.4137931 C61.8,34.4137931 57.4666667,30.1347962 57.4666667,25 C57.4666667,19.8652038 61.8,15.5862069 67,15.5862069 C72.2,15.5862069 76.5333333,19.8652038 76.5333333,25 C76.5333333,30.1347962 72.3238095,34.4137931 67,34.4137931 Z" id="Shape" fill="url(#linearGradient-2)"></path>
                        <path d="M28,12 C20.8317757,12 15,17.8317757 15,25 C15,32.1682243 20.8317757,38 28,38 C35.1682243,38 41,32.1682243 41,25 C41,17.8317757 35.1682243,12 28,12 Z M18.4666667,25 C18.4666667,19.8652038 22.8,15.5862069 28,15.5862069 C33.2,15.5862069 37.5333333,19.8652038 37.5333333,25 C37.5333333,30.1347962 33.2,34.4137931 28,34.4137931 C22.8,34.4137931 18.4666667,30.1347962 18.4666667,25 Z" id="Shape" fill="url(#linearGradient-3)"></path>
                    </g>
                </g>
            </g>
        </g>
    </g>
</svg>