<?xml version="1.0" encoding="UTF-8"?>
<svg width="65px" height="67px" viewBox="0 0 65 67" version="1.1" xmlns="http://www.w3.org/2000/svg" xmlns:xlink="http://www.w3.org/1999/xlink">
    <!-- Generator: Sketch 49.3 (51167) - http://www.bohemiancoding.com/sketch -->
    <title>Icon</title>
    <desc>Created with Sketch.</desc>
    <defs>
        <linearGradient x1="9.52405428%" y1="12.6877029%" x2="87.9985609%" y2="90.5133929%" id="linearGradient-1">
            <stop stop-color="#8551CD" offset="0%"></stop>
            <stop stop-color="#53A0FD" offset="47.3582009%"></stop>
            <stop stop-color="#72E5ED" offset="100%"></stop>
        </linearGradient>
        <linearGradient x1="9.52405428%" y1="12.6877029%" x2="87.9985609%" y2="90.5133929%" id="linearGradient-2">
            <stop stop-color="#8551CD" offset="0%"></stop>
            <stop stop-color="#53A0FD" offset="100%"></stop>
        </linearGradient>
        <linearGradient x1="-26.1621094%" y1="-22.7636719%" x2="87.9985609%" y2="90.5133929%" id="linearGradient-3">
            <stop stop-color="#8551CD" offset="0%"></stop>
            <stop stop-color="#53A0FD" offset="100%"></stop>
        </linearGradient>
        <linearGradient x1="-94.1992188%" y1="-102.734375%" x2="87.9985609%" y2="90.5133929%" id="linearGradient-4">
            <stop stop-color="#8551CD" offset="0%"></stop>
            <stop stop-color="#53A0FD" offset="100%"></stop>
        </linearGradient>
    </defs>
    <g id="Design---Desktop" stroke="none" stroke-width="1" fill="none" fill-rule="evenodd">
        <g id="Landing-Screen" transform="translate(-1031.000000, -828.000000)" fill-rule="nonzero">
            <g id="Get-Started" transform="translate(242.000000, 703.000000)">
                <g id="Animation" transform="translate(709.000000, 125.000000)">
                    <g id="Icon" transform="translate(80.000000, 0.000000)">
                        <path d="M54.9561574,31.852459 C59.96496,21.5313557 63.6200323,10.5128806 64.9737627,1.58652095 C65.1091357,1.02862347 64.7030166,0.331251626 64.1615244,0.0523028884 C63.6200323,-0.0871714806 62.943167,0.0523028884 62.5370479,0.470725995 C56.4452609,7.58391881 50.3534739,18.4629196 45.6154173,29.7603435 C43.5848216,29.4813947 41.554226,29.202446 40.8773607,28.6445485 C38.8467651,27.1103305 39.2528842,24.0418944 40.0651225,19.2997658 C41.2834799,13.0234192 42.6372103,5.21285454 33.9733354,1.16809784 C23.9557301,-3.57403071 10.8245448,7.44444444 5.95111517,14.2786885 C-4.33723623,29.202446 -0.952910113,49.984127 13.5320057,60.584179 C19.3530466,64.9078845 26.1216988,67 32.8903511,67 C40.2004955,67 47.5106399,64.4894614 53.0609348,59.4683841 C56.5806339,56.2604736 59.2880948,52.0762425 60.7771983,47.1946396 C62.1309288,43.0104085 61.9955557,39.3840749 60.6418253,36.7340619 C59.5588409,34.6419464 57.6636183,32.968254 54.9561574,31.852459 Z M60.7236842,6.96103896 C58.1929465,17.7674906 52.9982744,30.8194386 46.6048318,41.7662338 L44.4736842,40.6434855 C48.3363891,28.5739422 54.4634383,15.9430247 60.7236842,6.96103896 Z M46.1842105,43.8599838 C46.0551142,45.6274351 45.2805362,48.3465909 44.8932473,49.2982955 C44.5059583,50.25 41.7949355,53.1051136 39.3421053,55.6883117 C39.6002979,52.0174513 39.9875869,48.0746753 40.3748759,47.1229708 C40.7621648,46.307224 42.3113208,43.8599838 43.4731877,42.6363636 L44.8932473,43.3161526 L46.1842105,43.8599838 Z M58.2284379,46.3740874 C56.8700141,50.7213023 54.5606937,54.647819 51.3004767,57.4524738 C41.5198256,66.2871363 26.1696371,66.7078345 15.0305623,58.5743357 C1.71800941,48.6178112 -1.40636524,29.5461588 7.96675872,15.8033504 C12.4495571,9.35264447 24.675371,-0.323414477 32.9617559,3.46286946 C39.7538747,6.54798971 38.6671357,12.4377647 37.4445543,18.4677725 C36.6295001,23.2356856 35.6786034,28.0035987 39.3463476,30.8082535 C40.4330866,31.6496499 42.3348799,32.0703481 44.6442003,32.3508136 C43.6933036,34.8750029 42.742407,37.5394249 41.9273527,40.0636142 C40.1614019,41.4659416 37.9879238,44.97176 37.4445543,46.2338547 C36.4936577,48.4775785 36.0861306,57.7329392 35.9502882,59.6961976 C35.9502882,60.2571285 36.2219729,60.8180595 36.7653425,60.9582922 C37.308712,61.2387577 37.7162391,61.098525 38.2596086,60.6778267 C39.6180324,59.4157321 46.2743088,53.1052589 47.2252054,50.861535 C47.7685749,49.7396731 48.9911563,45.6729237 48.8553139,43.4291999 C50.6212648,40.4843124 52.2513733,37.3991922 53.8814818,34.3140719 C56.0549599,35.1554683 57.549226,36.417563 58.3642803,37.9601231 C59.3151769,39.9233815 59.1793345,42.7280362 58.2284379,46.3740874 Z" id="Shape" fill="url(#linearGradient-1)"></path>
                        <path d="M26.5,7 C22.9673913,7 20,9.82608696 20,13.5 C20,17.173913 22.826087,20 26.5,20 C30.0326087,20 33,17.173913 33,13.5 C33,9.82608696 30.173913,7 26.5,7 Z M26.0666667,16.5333333 C24.2,16.5333333 22.6,15.0666667 22.6,13.0666667 C22.6,11.0666667 24.0666667,9.6 26.0666667,9.6 C27.9333333,9.6 29.5333333,11.0666667 29.5333333,13.0666667 C29.5333333,15.0666667 28.0666667,16.5333333 26.0666667,16.5333333 Z" id="Shape" fill="url(#linearGradient-2)"></path>
                        <path d="M20,30.5 C20,26.9673913 17.173913,24 13.5,24 C9.9673913,24 7,26.826087 7,30.5 C7,34.173913 9.82608696,37 13.5,37 C17.173913,37 20,34.0326087 20,30.5 Z M9.6,30.0666667 C9.6,28.2 11.0666667,26.6 13.0666667,26.6 C14.9333333,26.6 16.5333333,28.0666667 16.5333333,30.0666667 C16.5333333,31.9333333 15.0666667,33.5333333 13.0666667,33.5333333 C11.0666667,33.5333333 9.6,31.9333333 9.6,30.0666667 Z" id="Shape" fill="url(#linearGradient-3)"></path>
                        <path d="M18.5,39 C14.9673913,39 12,41.826087 12,45.5 C12,49.0326087 14.826087,52 18.5,52 C22.173913,52 25,49.173913 25,45.5 C24.8586957,41.9673913 22.0326087,39 18.5,39 Z M18.0666667,48.5333333 C16.2,48.5333333 14.6,47.0666667 14.6,45.0666667 C14.6,43.2 16.0666667,41.6 18.0666667,41.6 C20.0666667,41.6 21.5333333,43.0666667 21.5333333,45.0666667 C21.4,46.9333333 19.9333333,48.5333333 18.0666667,48.5333333 Z" id="Shape" fill="url(#linearGradient-4)"></path>
                    </g>
                </g>
            </g>
        </g>
    </g>
</svg>