<?xml version="1.0" encoding="UTF-8"?>
<svg width="37px" height="37px" viewBox="0 0 37 37" version="1.1" xmlns="http://www.w3.org/2000/svg" xmlns:xlink="http://www.w3.org/1999/xlink">
    <!-- Generator: Sketch 50 (54983) - http://www.bohemiancoding.com/sketch -->
    <title>logo</title>
    <desc>Created with Sketch.</desc>
    <defs></defs>
    <g id="Page-1" stroke="none" stroke-width="1" fill="none" fill-rule="evenodd">
        <g id="logo" fill-rule="nonzero">
            <polygon id="Fill-1" fill="#1A1919" points="0 37 37 37 37 0 0 0"></polygon>
            <path d="M31.8107395,23.9901696 L33.9635962,23.9901696 L33.9635962,27.5067868 L27.1813409,27.5067868 L27.1813409,18.3919791 C27.1813409,15.5930455 26.2485787,14.5166172 24.4184371,14.5166172 C22.1935857,14.5166172 21.2965297,16.0954563 21.2965297,18.3563375 L21.2965297,23.9901696 L23.4493864,23.9901696 L23.4493864,27.5067868 L16.6674546,27.5067868 L16.6674546,18.3919791 C16.6674546,15.5930455 15.7343689,14.5166172 13.9042273,14.5166172 C11.6793759,14.5166172 10.7822553,16.0954563 10.7822553,18.3563375 L10.7822553,23.9901696 L13.868521,23.9901696 L13.868521,27.5067868 L4,27.5067868 L4,23.9901696 L6.15324475,23.9901696 L6.15324475,14.8393322 L4,14.8393322 L4,11.3227151 L10.7822553,11.3227151 L10.7822553,13.7629039 C11.7510472,12.0407868 13.4378462,11 15.6984039,11 C18.0308916,11 20.1840717,12.1124581 20.9734913,14.4806521 C21.8705472,12.3274721 23.7006888,11 26.2485787,11 C29.1552133,11 31.8107395,12.7581469 31.8107395,16.5981906 L31.8107395,23.9901696 Z" id="Fill-3" fill="#FFFFFE"></path>
        </g>
    </g>
</svg>