<?xml version="1.0" encoding="UTF-8"?>
<svg width="130px" height="37px" viewBox="0 0 130 37" version="1.1" xmlns="http://www.w3.org/2000/svg" xmlns:xlink="http://www.w3.org/1999/xlink">
    <!-- Generator: Sketch 49.3 (51167) - http://www.bohemiancoding.com/sketch -->
    <title>moz-logo-bw-rgb</title>
    <desc>Created with Sketch.</desc>
    <defs></defs>
    <g id="Design---Desktop" stroke="none" stroke-width="1" fill="none" fill-rule="evenodd">
        <g id="Landing-Screen" transform="translate(-40.000000, -26.000000)">
            <g id="NAv">
                <g id="Group" transform="translate(40.000000, 24.000000)">
                    <g id="moz-logo-bw-rgb" transform="translate(0.000000, 2.000000)">
                        <polygon id="Fill-1" fill="#1A1919" points="0.00388111888 37 129.370629 37 129.370629 0.00886188811 0.00388111888 0.00886188811"></polygon>
                        <path d="M35.4863636,25.8831818 L37.6392203,25.8831818 L37.6392203,29.399799 L30.856965,29.399799 L30.856965,20.2849913 C30.856965,17.4860577 29.9242028,16.4096294 28.0940612,16.4096294 C25.8692098,16.4096294 24.9721538,17.9884685 24.9721538,20.2493497 L24.9721538,25.8831818 L27.1250105,25.8831818 L27.1250105,29.399799 L20.3430787,29.399799 L20.3430787,20.2849913 C20.3430787,17.4860577 19.409993,16.4096294 17.5798514,16.4096294 C15.355,16.4096294 14.4578794,17.9884685 14.4578794,20.2493497 L14.4578794,25.8831818 L17.5441451,25.8831818 L17.5441451,29.399799 L7.67562413,29.399799 L7.67562413,25.8831818 L9.82886888,25.8831818 L9.82886888,16.7323444 L7.67562413,16.7323444 L7.67562413,13.2157273 L14.4578794,13.2157273 L14.4578794,15.6559161 C15.4266713,13.933799 17.1134703,12.8930122 19.374028,12.8930122 C21.7065157,12.8930122 23.8596958,14.0054703 24.6491154,16.3736643 C25.5461713,14.2204843 27.3763129,12.8930122 29.9242028,12.8930122 C32.8308374,12.8930122 35.4863636,14.6511591 35.4863636,18.4912028 L35.4863636,25.8831818 Z M48.2297587,26.2061556 C45.7178986,26.2061556 44.4261329,24.0529108 44.4261329,21.2539773 C44.4261329,18.2037413 45.897271,16.4455944 48.2657885,16.4455944 C50.4546101,16.4455944 52.212757,17.9167325 52.212757,21.1819825 C52.212757,24.2683129 50.6339825,26.2061556 48.2297587,26.2061556 Z M48.3374598,12.8929476 C42.5243199,12.8929476 39.6533916,16.8042745 39.6533916,21.5410507 C39.6533916,26.7084371 43.0983374,29.7584143 48.0864161,29.7584143 C53.2535437,29.7584143 56.9855629,26.4930997 56.9855629,21.3256486 C56.9855629,16.8042745 54.1505997,12.8929476 48.3374598,12.8929476 Z M71.5296678,23.3713217 L75.1902098,23.7299371 L74.185,29.399799 L60.0466014,29.399799 L59.580285,26.9595455 L68.4791084,16.7323444 L63.4199406,16.7323444 L62.7021923,19.2445927 L59.3648829,18.8855245 L59.938965,13.2157273 L74.1494231,13.2157273 L74.5084266,15.6559161 L65.5365734,25.8831818 L70.7760839,25.8831818 L71.5296678,23.3713217 Z M78.5790734,29.399799 L83.4233566,29.399799 L83.4233566,23.5863357 L78.5790734,23.5863357 L78.5790734,29.399799 Z M78.5790734,19.0292552 L83.4233566,19.0292552 L83.4233566,13.2157273 L78.5790734,13.2157273 L78.5790734,19.0292552 Z M98.0079545,4.71122552 L91.0109441,29.3997343 L86.4538636,29.3997343 L93.4508741,4.71122552 L98.0079545,4.71122552 Z M107.409965,4.71122552 L100.412955,29.3997343 L95.8558741,29.3997343 L102.852885,4.71122552 L107.409965,4.71122552 Z M113.62493,26.4573287 C112.22514,26.4573287 111.723182,25.6316206 111.723182,24.591222 C111.723182,22.8326871 113.158549,22.3663706 114.809318,22.3663706 C115.562255,22.3663706 116.388287,22.474007 117.141224,22.581708 C117.033846,25.2729406 115.275699,26.4573287 113.62493,26.4573287 Z M123.565122,26.564771 C123.313497,26.6363776 123.098741,26.6724073 122.883339,26.6724073 C122.129755,26.6724073 121.770752,26.3496923 121.770752,25.4166713 L121.770752,18.3833724 C121.770752,14.6870594 118.828217,12.8928829 115.3475,12.8928829 C112.691521,12.8928829 111.256801,13.2159213 108.421643,14.3643444 L107.790962,18.0871136 L111.48708,18.4817587 L112.009738,16.6605437 C112.763969,16.2661573 113.517552,16.1941626 114.485892,16.1941626 C117.105647,16.1941626 117.141224,18.1676469 117.141224,19.8184808 L117.141224,20.3568566 C116.316486,20.2492203 115.383077,20.2131259 114.485892,20.2131259 C110.789773,20.2131259 106.950699,21.1462762 106.950699,25.1292745 C106.950699,28.502549 109.606031,29.7586731 111.937937,29.7586731 C114.557692,29.7586731 116.208462,28.1795752 117.141224,26.5286766 C117.356626,28.502549 118.541014,29.7586731 120.693741,29.7586731 C121.698951,29.7586731 122.739738,29.4715997 123.600699,29.0048951 L123.565122,26.564771 Z" id="Fill-3" fill="#FFFFFE"></path>
                    </g>
                </g>
            </g>
        </g>
    </g>
</svg>